<?xml version="1.0" encoding="UTF-8"?>
<svg width="79.867mm" height="26.981mm" version="1.1" viewBox="0 0 79.867 26.981" xmlns="http://www.w3.org/2000/svg" xmlns:cc="http://creativecommons.org/ns#" xmlns:dc="http://purl.org/dc/elements/1.1/" xmlns:rdf="http://www.w3.org/1999/02/22-rdf-syntax-ns#">
 <metadata>
  <rdf:RDF>
   <cc:Work rdf:about="">
    <dc:format>image/svg+xml</dc:format>
    <dc:type rdf:resource="http://purl.org/dc/dcmitype/StillImage"/>
    <dc:title/>
   </cc:Work>
  </rdf:RDF>
 </metadata>
 <g transform="translate(-57.554 -124.13)">
  <g transform="matrix(.57272 0 0 .57272 31.59 -121)" aria-label="Webshop">
   <path d="m85.385 435.73q0 0.4 0 1.6 0.04 1.2 0 1.6-0.16 1.48-0.52 2.88-0.12 0.4-0.28 0.92-0.12 0.48-0.32 1.04-0.16 0.52-0.28 0.88-0.24 0.76-1.4 3.24-0.92 1.88-2.52 4.4-0.88 1.36-1.76 2.4-0.92 1.08-1.96 2.36-0.64 0.76-1.32 1.48t-1.84 1.84q-1.12 1.08-1.4 1.36-1.28 1.28-3.76 2.24-1.76 0.68-3.4 0.44-0.24-0.04-0.52-0.12-0.24-0.12-0.44-0.2-0.2-0.12-0.48-0.24-0.28-0.16-0.48-0.24-0.04-0.2-0.16-0.32-0.12-0.16-0.4-0.32-0.24-0.16-0.28-0.2-0.76-0.6-0.88-0.76-0.76-0.84-1-2.28 0.12 0.6 0.2 0.76 0.08 0.12 0.48 0.32-0.2-0.28-0.4-0.84-0.16-0.44-0.28-0.24-0.28 0.52-0.44-0.08 0-0.08 0-0.12t-0.04-0.08q0-0.08-0.04-0.12-0.44-1.48-0.4-3.04 0-0.04 0.16-0.4 0.16-0.4-0.04-0.52-0.68 0.28-0.88 0.68-0.96 1.76-2.64 3.96-0.32 0.48-0.8 0.96-0.44 0.48-1 1-0.52 0.52-0.84 0.88-0.2 0.2-1.04 0.48-0.72 0.24-1.72 0.12-0.96-0.16-1.44-0.56-0.08-0.36-0.56-0.64-0.44-0.32-0.52-0.44-0.36-0.44-0.76-0.4-0.52 0.04-1.04-0.68-0.64-0.96-0.6-1.88 0.08-0.8 0-1.6-0.04-0.4 0.08-0.88 0.08-0.48 0.2-1t0.16-0.88q0.2-0.16 0.2-0.56t0-0.44q0.48-1.72 1.44-4.6 0.16-0.4 0.32-0.88 0.2-0.48 0.4-1.04 0.24-0.56 0.36-0.92 0.12-0.24 0.72-1.64 0.6-1.44 0.84-2.2 0.04-0.12 0.08-0.24 0.08-0.12 0.16-0.24t0.12-0.24q0.76-1.8 3.4-6.92 1.2-2.36 1.96-3.44 0.08-0.12 0.68-1.12 0.44-0.84 0.36-1.36-0.04-0.2 0-0.36 0.04-0.2 0.2-0.24 0.16-0.08 0.36 0 0 0 0.08 0.04t0.16 0.04q0.28 0.08 0.32 0.16t-0.08 0.36q-0.08 0.2 0.04 0.28 0.12 0.12 0.28 0.04 0.6-0.32 0.8-0.28 0.56 0.04 0.64 0.36 0.12 0.44 0.44 0.4 0.24-0.04 0.36 0.28 0.32 0.84 0.36 1.48 0.04 0.36-0.28 0.84-0.28 0.44-0.84 1.36-0.52 0.88-0.8 1.32-0.32 0.52-0.64 1.08-0.28 0.56-0.68 1.4-0.36 0.8-0.52 1.08-0.92 1.84-2 4.32-0.16 0.4-0.44 1-0.24 0.56-0.48 1.08t-0.4 0.96q-0.2 0.56-0.64 1.68-0.4 1.12-0.6 1.64-0.6 1.64-1.16 3.4-0.2 0.72-0.48 2.04-0.04 0.12-0.12 0.4t-0.12 0.4q0 0.12 0.04 0.44-0.2 0.12-0.2 0.56 0.04 0.44-0.16 0.6 0 0 0 0.44 0 1.6-0.04 1.72 0 0.36 0 0.68 0 0.28 0.12 0.64 0.16 0.32 0.44 0.56 0.92-0.48 1.44-0.92 0.32-0.28 0.64-0.64t0.52-0.6q0.24-0.28 0.6-0.72 0.36-0.48 0.48-0.68 0.16-0.2 0.52-0.76 0.4-0.56 0.52-0.72 0.44-0.64 2.76-4.48 0.64-1.04 1.12-1.96 0.16-0.32 0.76-1.44t0.88-1.72q0.72-1.64 0.84-2.12 0.2-0.64 0.64-1.04 0.6-0.56 0.52-1.2 0.12 0 0.16-0.04 0.04-0.08 0.04-0.16 0-0.12 0-0.16 0.16-0.12 0.28-0.28 0.16-0.2 0.2-0.28 0.04-0.12 0.12-0.4 0.12-0.32 0.16-0.36 0.12 0 0.16-0.04 0.04-0.08 0-0.2 0-0.12 0-0.16 0.12 0 0.16-0.04 0.04-0.08 0.04-0.16 0-0.12 0-0.16 0.2 0 0.2-0.24 0-0.08 0-0.12 0.04 0 0.08 0 0.04-0.04 0.08-0.12h-0.12l-0.04 0.04q-0.2 0.08-0.2 0.32 0 0.04 0 0.08 0 0 0 0.04-0.12 0-0.16 0.08-0.04 0.04-0.04 0.16t0 0.12q-0.12 0.04-0.16 0.08t-0.04 0.16q0.04 0.12 0.04 0.16-0.08 0.04-0.2 0.12-0.12 0.04-0.2 0.08 0.16-0.68 0.92-2 0.04-0.04 0.12-0.12t0.12-0.16q1.12-2.28 1.6-3 0.16-0.28 0.4-0.76 0.24-0.52 0.48-0.92 0.24-0.44 0.48-0.76 0.04 0 0.04-0.08l0.04-0.08q0.24-0.2 0.48-0.52 0.24-0.36 0.36-0.56t0.32-0.68q0.24-0.52 0.32-0.64 0.16-0.36 0-0.52-0.08-0.12 0.08-0.4t0.28-0.28q0.24-0.04 0.36 0.12 0.16 0.16 0.2 0.44 0 0.04 0 0.92 0.28-0.12 0.36-0.48 0.08-0.32 0.2-0.36 0.16-0.08 0.48 0.12 1 0.48 1.4 1.48 0.28 0.8 0 2-0.16 0.6-0.4 1.24-0.24 0.6-0.6 1.4-0.36 0.76-0.48 1.16-0.32 0.68-1 2-0.64 1.32-0.92 2-0.16 0.44-1.32 2.84-0.12 0.24-0.32 0.6-0.2 0.32-0.4 0.64-0.16 0.28-0.28 0.6-0.16 0.36-0.36 0.84t-0.4 0.88q-0.16 0.36-0.36 0.84t-0.36 0.84q-0.76 1.92-1.12 3.12-0.24 0.88-0.76 2.8-0.44 1.64-0.32 4.16 0.08 1.36 0.52 2.04 0.28 0.36 0.4 0.44 0.16 0.08 0.52-0.04 0.12-0.04 0.32-0.08 0.24-0.08 0.4-0.16 0.2-0.08 0.32-0.2 0.16-0.16 0.32 0-0.16 0.2-0.2 0.24 0.32 0.2 0.6-0.04 2.2-1.64 2.88-2.12 1.56-1.08 3.8-3.48 0.96-1 1.88-2.4 0.04-0.08 0.04-0.2 0.04-0.12 0.04-0.16 0.4-0.08 0.36-0.56 0.44-0.16 0.56-0.92 0.44-0.2 0.56-0.96 0.24-0.04 0.4-0.32 0.04-0.08 0.08-0.24 0.08-0.2 0.16-0.32t0.2-0.2q0.08-0.08 0.08-0.16 0.04-0.12 0.04-0.24 0-0.16 0-0.2 0.16-0.08 0.16-0.08 0.16-0.16 0.2-0.28 2.16-4.28 2.96-6.64 0.64-1.92 1-3.6 0.04-0.2 0.08-0.64 0.04-0.48 0.12-0.68 0.12-0.28 0.12-0.56 0.04-0.32 0-0.68t0-0.56q-0.44 1.16-0.48 1.76-0.08 0.44-0.6 2.48-0.44 1.72-0.6 2-0.08 0.2-0.28 0.92-0.16 0.72-0.44 1.04-0.12 0.48-0.28 0.96t-0.44 1.08q-0.24 0.56-0.4 0.88-0.12 0.28-0.52 1-0.36 0.72-0.44 0.92-0.16 0.32-0.16 0.68-0.64 0.6-0.96 1.68-0.4 0.2-0.56 0.96-0.44 0.16-0.56 0.92-0.4 0.12-0.36 0.56-0.24 0.12-0.44 0.32-0.16 0.2-0.32 0.48t-0.32 0.4q-0.08 0.12-0.32 0.4-0.2 0.28-0.36 0.44-0.32 0.36-1.04 1.08-0.72 0.68-1.04 1.04-0.24 0.2-0.48 0.16 0-0.12 0.08-0.2t0.2-0.16q0.12-0.12 0.16-0.2 2.08-2.24 3.72-4.92 2-3.32 3.04-5.6 0.32-0.68 1.28-3.04 0.2-0.52 0.52-1.48 0.36-0.96 0.52-1.36 0.24-0.6 0.52-1.72 0.32-1.12 0.44-1.56 0.04-0.08 0.04-0.44t0.16-0.52q-0.04-0.4 0.08-1.12 0.16-0.72 0.12-1.04-0.04-0.56-0.28-1-0.2-0.4-0.72-0.64-2-0.92-3.48-0.92-0.04 0-0.4 0-0.32 0-0.36 0-0.64 0.04-1.12-0.44-0.04-0.04-0.56-0.56 0.04-0.12 0.2-0.24 0.2-0.28 0.12-0.4-0.04 0-0.32-0.12 0.16-0.32 0.72-0.52 0.6-0.24 0.76-0.48-0.56-0.12-1.08 0.08-0.12 0.04-0.32 0.16-0.16 0.08-0.32 0.16-0.16 0.04-0.32 0.04 0.2-0.84 1.04-0.88 2-0.08 3.88 0.64 0.96 0.4 3.24 1.88 0.88 0.56 1.84 1.84 0.68 0.88 1 1.92 0.28 0.96 0.24 1.32zm-15.68-4.2q-0.12 0-0.08 0.12 0 0 0.04 0.24 0.16-0.08 0.12-0.16 0.44-0.96 0.44-0.96-0.44 0.12-0.44 0.76 0 0-0.08 0zm-4.92 6.96t-0.08 0.08q0.04 0 0.12 0.08 0.04-0.04 0.08-0.08-0.12-0.08-0.12-0.08zm-18.76 21.6q0.04-0.32 0-0.4 0-0.12-0.24-0.28-0.16 0.32 0.24 0.68zm0.56-0.56q-0.2 0.28 0.12 0.56-0.04-0.48-0.12-0.56zm0.08 0.64q0.04 0 0.04 0.04 0-0.08 0-0.12-0.08 0-0.04 0.08zm0.12 0.08-0.04-0.04t0.04 0.04zm-0.08-0.16q0.04 0.04 0.16 0.12-0.12-0.12-0.12-0.12-0.04-0.04-0.04 0zm17.84-21.04q-0.04 0 0-0.08 0 0 0.04-0.04 0 0.08-0.04 0.12zm5.24-7.44q0-0.04 0-0.08 0.04 0.04 0 0.08zm0 0.08q0-0.04 0-0.08 0 0.04 0 0.08z"/>
   <path d="m97.595 437.97q0.08 0 0.36 0.08 0.32 0.04 0.44 0.08t0.28 0.16q0.2 0.08 0.28 0.24t0.04 0.4q0 0.16-0.12 0.28-0.08 0.12-0.2 0.2-0.08 0.04-0.24 0.08-0.16 0-0.32 0-0.12 0-0.32 0t-0.28 0q-0.68 0-0.92 0t-0.68 0.08q-0.44 0.04-0.6 0.12-0.12 0.04-0.4 0.2t-0.36 0.32-0.28 0.52-0.32 0.72q-0.12 0.32-0.32 0.88-0.24 0.68-1.12 3.12-0.84 2.4-1.24 3.52-0.36 1.08-0.96 2.96-0.56 1.88-0.96 3.44-0.24 0.96-0.04 1.24 0.2 0.24 1.32 0.4-0.36 0.28-0.36 0.32-0.48 0.08-0.88 0.28-0.36 0.16-0.6 0.52-0.24 0.32-0.4 0.52-0.16 0.16-0.28 0.68-0.08 0.52-0.12 0.68t-0.12 0.8-0.08 0.72q-0.08 0.68 0.24 0.96t1 0.08 1.92-0.56q1.24-0.4 1.68-0.56 0.76-0.2 1-0.24 0.68-0.12 1.04 0.76 0.16 0.36-0.48 0.6-0.08 0.04-0.16 0.08-0.24 0.12-2.44 1-2.16 0.88-3.2 1.52-0.64 0.36-1.44-0.04-4.2-2.12-3.72-6.8 0.24-1.96 0.8-4.28 0.6-2.32 1.04-3.64 0.44-1.36 1.4-4.12 0.44-1.24 0.96-2.52 0.56-1.28 1.36-3.04t1.12-2.48q0.36-0.76 0.88-1.04 0.52-0.32 1.44-0.16 0.72 0.16 2.56 0.44 1.84 0.24 2.8 0.48z"/>
   <path d="m108.66 450.57q2.36 1.24 2.8 3.4 0.44 2.12-1 4.68-2.12 4.04-6.88 5.84-2.44 0.88-4.48-0.48-0.64-0.44-0.96-0.32-0.28 0.16-0.56 0.16t-0.48-0.04q-0.16-0.04-0.4-0.24-0.2-0.24-0.28-0.36t-0.32-0.44q-1.12-1.48-1-2.96 0.96-5.84 2.28-9.28 2.76-7.4 4.4-10.64 0.12-0.2 0.32-0.72 0.4-1 0.6-1.08t1.08 0.56q1.16 0.84 2.08 0.28 2.56-1.56 4.68 0.76 2.04 2.2 0.96 5.12-0.88 2.36-2.92 4.6-0.68 0.76 0.08 1.16zm-11.96 7.8q0.64-2.76 1-4.24-0.04 0-0.16 0-0.08-0.04-0.16-0.04-0.64 1.6-1 4.2 0.04 0 0.16 0.04t0.16 0.04zm5-8.96q-0.16 0.36 0 0.52 0.16 0.2 0.56-0.08 4.04-2.84 6.04-6.8 0-0.04 0.08-0.2 0.12-0.2 0.12-0.24 0.04-0.08 0.12-0.24t0.08-0.24q0.04-0.12 0.04-0.24 0.04-0.16 0-0.24 0-0.12-0.08-0.24-0.04-0.12-0.12-0.24-0.32-0.24-0.52-0.2-0.16 0-0.64 0.16-0.44 0.12-0.72 0.08 0.8-0.32 0.84-0.32 0.08-0.04 0.36-0.12 0.32-0.08 0.44-0.16 0.12-0.12 0.04-0.36-0.08-0.16-0.16-0.24t-0.24-0.08q-0.12 0-0.24 0.04-0.12 0-0.32 0.04-0.16 0.04-0.24 0.08-0.88 0.16-1.4 0.72-0.52 0.52-1.04 1.56-0.88 1.8-3 7.04zm-3.04 10.4q-0.28 1.32 0.04 1.64t1.68 0.08h0.04q3.12-1.72 5.32-4.08 1.56-1.72 2.04-3.64 0.16-0.8-0.08-1.04-0.2-0.28-1-0.2-1.48 0.12-3.56 1.16-1.24 0.6-2.08 0.4-1.04-0.24-1.32 0.92-0.12 0.56-0.52 2.2t-0.56 2.56zm9.92-5.16q0.12-0.76-0.16-1.12-0.4 0.92-0.4 0.96-2.4 5.16-7.6 7.04 0.08 0.16 0.2 0.24 0.16 0.04 0.24 0.04 0.08-0.04 0.28-0.12 0.2-0.12 0.24-0.12 3.4-1.48 5.84-4.16 1.04-1.16 1.36-2.76z"/>
   <path d="m129.85 441.45q0.48 2.96-0.88 6.32-0.2 0.48-0.32 0.68-0.08 0.16-0.16 0.52-0.04 0.36-0.16 0.56t-0.4 0.2q-1.12-0.12-1.72-1.2-0.6-1.12-0.64-2.52-0.08-2.08 0.08-3.2 0.12-0.8-0.2-1.04-0.08-0.08-0.16-0.08-0.08-0.04-0.2-0.04-0.08 0-0.16 0-0.04 0-0.16 0.04-0.08 0.04-0.16 0.08-0.04 0.04-0.16 0.12-0.08 0.04-0.12 0.08-3.08 1.72-4.56 4.6-1.6 3 0.92 5.24 2.44 2.08 3.28 4.28 1.28 3.36-0.36 6.44-1.16 2.28-3.56 2.4-2.88 0.16-5.2-1.08-2.16-1.12-2.64-3.84-0.48-2.76 1.16-4.56 0.44-0.48 1-0.68 0.8-0.28 1.16-0.04 0.4 0.24 0.56 1.08 0.12 0.68-0.04 1.84-0.32 1.92 0.52 3.56 0.72 1.48 2.04 0.48 1.72-1.24 2-2.92 0.28-1.72-0.92-3.48-0.6-0.84-2.48-2.6-2.44-2.24-1.36-5.52 0.56-1.8 1.68-3.36t2.44-2.64q1.32-1.12 3.08-2.16 0.12-0.08 0.56-0.24 0.44-0.2 0.6-0.36 0.2-0.16 0.12-0.36-0.12-0.16-0.32-0.16-0.2-0.04-0.4 0.04t-0.52 0.24q-0.32 0.12-0.44 0.16-0.48 0.12-0.92 0.36-0.44 0.2-0.92 0.52-0.44 0.32-0.76 0.56-0.28 0.24-0.8 0.68-0.52 0.4-0.72 0.6 1.64-2.68 4.44-3.96 0.04-0.04 0.16-0.08 1.8-0.44 4.12 1.08t2.6 3.36zm-8.28 1.92q2.8-1.92 3.28-2.28 0.52-0.36 0.4-0.56-0.08-0.12-0.2-0.16-0.08-0.04-0.16 0-0.04 0-0.2 0.08-0.12 0.04-0.2 0.04-0.64 0.2-1.12 0.6-0.44 0.4-1.04 1.28-0.6 0.84-0.76 1z"/>
   <path d="m148.98 439.33q0.44 1.2-0.2 2.92-4.4 11.52-4.56 11.96-0.76 2.08-1.16 3.24-0.36 1.12-0.76 2.96-0.36 1.84-0.4 3.4 0 0.72-0.88 1.24-0.12 0.16-0.32 0.08-0.16-0.04-0.24-0.12t-0.2-0.24-0.2-0.2q-1.28-1.12-1.84-2-0.36-0.52-0.52-1.04-0.12-0.56-0.12-1.2 0.04-0.64 0.12-1.04t0.24-1.16q0.2-1.04-0.04-1.24-0.2-0.24-1.2 0-0.52 0.16-1.16 0.32-0.6 0.16-0.88 0.2-0.24 0.04-0.64 0.2-0.36 0.12-0.48 0.16-0.08 0.04-0.32 0.24t-0.28 0.32q-0.04 0.08-0.2 0.44-0.16 0.32-0.24 0.6-0.04 0.28-0.28 0.84-0.2 0.52-0.36 1.04-0.08 0.2-0.24 0.6-0.12 0.4-0.2 0.68-0.08 0.24-0.24 0.56-0.16 0.28-0.44 0.52-0.24 0.24-0.56 0.4-0.6 0.28-0.68 0-0.12-0.32-0.4-0.52-0.24-0.24-0.6-0.48-0.32-0.24-0.48-0.4-0.28-0.28-0.52-0.68-0.24-0.44-0.44-0.92-0.24-0.48-0.4-0.72-1.32-1.76 0.44-3.52 0.72-0.68 1.24-1.52 0.56-0.88 0.96-1.76 0.4-0.92 0.72-1.76 0.32-0.88 0.72-1.88t0.8-1.72q0.72-1.28 1.4-2.68 0.72-1.44 1.6-3.32 0.92-1.92 1.32-2.76 0.04-0.08 0.44-0.96 0-0.08 0.04-0.32 0.08-0.28 0.16-0.4 0.12-0.16 0.36-0.16t0.32 0.16q0.12 0.16 0.12 0.44 0.04 0.28 0.12 0.44 1-0.84 2 0.16 1.08 1.04 0.76 2.56-0.12 0.56-0.36 1.2t-0.36 0.96q-0.12 0.28-0.56 1.16-0.4 0.88-0.44 0.96-0.44 1-1.68 3.68-1.24 2.64-1.88 4.08-0.28 0.64-0.44 1.16-0.12 0.48 0.08 0.72t0.72 0.12q1.76-0.36 2.48-0.56 1.16-0.32 1.6-1.56 0.76-2.36 1.8-4.96t2.32-5.64 1.96-4.88q0.24-0.6 0.56-0.52 0.28 0.08 0.28 0.52 0.04 0.44 0.16 0.6 0.68-0.56 1.44-0.24 0.76 0.28 1.12 1.24z"/>
   <path d="m164.83 444.65q0 0.04 0 0.56-0.08 5.4-3.72 12.08-2.2 4.04-5.08 6.44-1.76 1.48-3.52 1.28-1.72-0.16-3.72-2-2.36-2.12-2.16-6.08 0.48-9.12 5.84-16.04 1.8-2.36 3.92-3.28 1.52-0.64 2.84-0.28 2.16 0.64 3.84 2.88 1.72 2.2 1.76 4.44zm-16.88 13q0.08 0.08 0.2 0.12 0.16 0 0.24-0.04 0.12-0.04 0.2-0.12t0.12-0.2q0.04-0.16 0.04-0.24 0.04-0.12 0.08-0.28 0.04-0.2 0.08-0.28 1.84-8.16 7.76-14.56 1.28-1.4 2.32-1.72 0.04-0.04 0.16-0.04 0.12-0.04 0.16-0.04 0.08-0.04 0.16-0.08t0.08-0.12 0-0.16q-0.16-0.48-0.84-0.08-0.2 0.12-0.92 0.48-0.68 0.32-1.12 0.6-0.4 0.28-0.72 0.64-0.48 0.56-1.68 1.8-1.16 1.2-1.96 2.2t-1.32 2.08q-0.04 0.04-0.76 1.52 0.12-0.64 0.36-1.28 0.24-0.68 0.44-1.16 0.24-0.52 0.6-1.2 0.4-0.68 0.64-1.04 0.24-0.4 0.72-1.16 0.52-0.76 0.68-1.08-1.32 1.24-2.68 3.8-1.32 2.52-2.16 5.4t-0.88 5.08q0 0.12-0.04 0.32 0 0.16-0.04 0.32 0 0.12 0 0.28 0.04 0.16 0.08 0.24zm12.24-3.04q0.16-0.44 0.48-1.2 0.36-0.8 0.52-1.36 0.2-0.56 0.32-1.28t-0.12-1.44q-0.2-0.72-0.76-1.4-0.24 0.52-0.64 1.56-0.16-0.44 0.08-1.28 0.68-2.8 0.44-5.68-0.08-0.8-0.32-0.92-0.2-0.16-0.88 0.2-2.28 1.32-3.12 3.04-0.36 0.64-0.92 1.72-0.56 1.04-0.96 1.8-0.36 0.72-0.8 1.72-0.44 0.96-0.76 1.84-1.48 4.6-1.44 7.44 0 0.04 0 0.28 0 0.2 0 0.32 0.04 0.08 0.04 0.24 0.04 0.16 0.12 0.28 0.12 0.08 0.24 0.16 0.16 0.08 0.28 0.08 0.16 0 0.32-0.08t0.24-0.12q0.08-0.08 0.24-0.24t0.2-0.2q1.68-1.44 2.68-2.76 0-0.04 0.08-0.16 0.12-0.16 0.16-0.2t0.12-0.12q0.12-0.08 0.24-0.12 0.12-0.08 0.28-0.12-0.28 0.44-0.56 0.84-0.24 0.4-0.64 0.84-0.36 0.44-0.6 0.72-0.2 0.24-0.72 0.72-0.48 0.48-0.64 0.64-0.12 0.12-0.72 0.68-0.56 0.56-0.64 0.64 0.6-0.24 1.2-0.6 0.64-0.4 0.96-0.72 0.36-0.32 1-0.92 0.68-0.64 0.92-0.88-1.4 2.08-3.24 3.32-0.04 0.04-0.08 0.08-0.56 0.36-0.4 0.72 0.24 0.48 1 0.2 0.8-0.28 1.6-0.96 3.92-3.24 5.2-7.32z"/>
   <path d="m182.94 441.77q1.92 2.52 1.84 5.08-0.08 2.32-0.88 4.52-0.8 2.16-2.24 4.84-2.24 4.16-5.32 6.72-1.16 1-2.36 1.24-1.16 0.24-2.28-0.04-1.08-0.32-2.6-1.16-0.6-0.36-0.88-0.28t-0.44 0.76q-1.24 5.48-1.48 7.28-0.2 1.8 0.44 3 0.08 0.2 0.12 0.32 0.04 0.16-0.04 0.28-0.04 0.12-0.08 0.16-0.04 0.08-0.2 0.2-0.12 0.16-0.16 0.24-0.36 0.4-0.96-0.04-1.04-0.8-2.72-2.8-0.52-0.64-0.8-1.4-0.32-0.76-0.44-1.28t-0.04-1.52q0.04-0.96 0.08-1.32 0.04-0.32 0.24-1.44 0.08-0.72 0.24-1.4 0.12-0.68 0.32-1.4 0.16-0.76 0.32-1.36t0.4-1.4 0.4-1.32 0.44-1.36q0.28-0.88 0.44-1.32 0.16-0.48 0.48-1.4t0.48-1.32q1.16-3.36 1.6-4.68 0.48-1.32 1.52-3.88t2.04-4.52q0.52-1.08 1.32-2.36 0.12-0.2 0.2-0.28t0.2-0.16q0.12-0.12 0.24 0 0.12 0.08 0.24 0.36 0.16 0.28 0.6 0.2 1.44-0.2 2.08 1.44 0.2 0.48 0.4 0.64 0.24 0.16 0.72 0 2.16-0.68 3.6-0.2 1.44 0.44 2.92 2.36zm-2.88 2q0.04-0.6-0.16-0.8t-0.76-0.04q-4.96 1.56-6.48 4.92-0.6 1.28-1.2 2.92-0.56 1.64-0.88 2.6-0.28 0.92-0.92 3.2-0.6 2.24-0.76 2.76-0.16 0.56 0.08 0.76 0.24 0.16 0.76 0 1.08-0.32 2.2-1.4 3.4-3.36 6.52-10.04 1.32-2.8 1.6-4.88z"/>
  </g>
 </g>
</svg>
